<svg xmlns="http://www.w3.org/2000/svg" xmlns:xlink="http://www.w3.org/1999/xlink" width="4195" height="512" viewBox="0 0 4195 512">
  <defs>
    <clipPath id="clip-Long_Logo">
      <rect width="4195" height="512"/>
    </clipPath>
  </defs>
  <g id="Long_Logo" data-name="Long Logo" clip-path="url(#clip-Long_Logo)">
    <g id="Group_3" data-name="Group 3" transform="translate(24.446 -54.634)">
      <g id="Group_1" data-name="Group 1" transform="translate(81.088 175.543)">
        <path id="Path_2" data-name="Path 2" d="M33.954,1.837,167.924,0c18.5-.253,33.287,14.3,33.034,32.5S185.5,65.676,167.007,65.929L33.037,67.763C14.54,68.017-.25,53.464,0,35.259S15.457,2.09,33.954,1.837Z" transform="translate(174.038 236.941) rotate(-150)" fill="#fff" opacity="0.998"/>
        <path id="Subtraction_2" data-name="Subtraction 2" d="M33.8,126.694h0a34.816,34.816,0,0,1-16.665-4.244,33.226,33.226,0,0,1-12.6-12.111A31.617,31.617,0,0,1,1.093,85.781a32.607,32.607,0,0,1,15.8-20.109l66.3-37.08,50.635,28.318a34.689,34.689,0,0,0,33.27.273L50.647,122.308A34.579,34.579,0,0,1,33.8,126.694ZM176.086,50.172l0,0a32.882,32.882,0,0,0,5.664-8.711A32.323,32.323,0,0,1,176.086,50.172Zm8.281-24.082a32,32,0,0,0-3.122-11.439,31.7,31.7,0,0,1,3.127,11.439ZM171.617,2.918A34.259,34.259,0,0,0,167.585.276L167.092,0a33.541,33.541,0,0,1,4.527,2.914Z" transform="translate(229.712 96.065)" fill="#fff" opacity="0.998"/>
        <path id="Path_3" data-name="Path 3" d="M33.037,67.763l133.97-1.834c18.5-.253,33.7-15.217,33.951-33.422S186.422-.25,167.924,0L33.954,1.837C15.457,2.09.256,17.054,0,35.259S14.54,68.017,33.037,67.763Z" transform="translate(251.873 0) rotate(30)" fill="#fff" opacity="0.998"/>
      </g>
      <path id="Subtraction_3" data-name="Subtraction 3" d="M1.5,107.773A31.506,31.506,0,0,1,0,98.9a31.889,31.889,0,0,0,1.5,8.872ZM101.268,98.1h0L50.632,69.781a34.7,34.7,0,0,0-33.224-.3l116.406-65.1a34.69,34.69,0,0,1,33.51-.143,33.225,33.225,0,0,1,12.6,12.112,31.617,31.617,0,0,1,3.442,24.558,32.607,32.607,0,0,1-15.8,20.109L101.269,98.1ZM5.038,80.907l0,0a32.615,32.615,0,0,1,2.047-2.86A34.333,34.333,0,0,0,5.038,80.907Z" transform="translate(92.827 185.725)" fill="#fff" opacity="0.998"/>
      <g id="Group_2" data-name="Group 2" transform="translate(1901.687 0.573)">
        <path id="Path_5" data-name="Path 5" d="M29.433,133.354V-13.722H71.91q17.522,0,29.468,4.911A47.812,47.812,0,0,1,120.891,5.525a58.281,58.281,0,0,1,10.885,22.831,126.886,126.886,0,0,1,3.319,30.4q0,17.522-3.584,29.867a72.743,72.743,0,0,1-9.159,20.575,47.919,47.919,0,0,1-12.61,13.009,61.88,61.88,0,0,1-14.2,7.3A59.562,59.562,0,0,1,82,132.69a105.767,105.767,0,0,1-10.619.664ZM4.212-34.961V154.593H69.255q23.628,0,40.884-6.637a71.337,71.337,0,0,0,28.406-19.247q11.15-12.61,16.46-31.061t5.31-42.344q0-45.663-23.628-67.963t-67.432-22.3ZM282.7,72.824H203.854a47,47,0,0,1,3.451-15,40.008,40.008,0,0,1,7.964-12.345,36.479,36.479,0,0,1,12.079-8.363,39.293,39.293,0,0,1,15.8-3.053,38.6,38.6,0,0,1,15.531,3.053,39.074,39.074,0,0,1,12.212,8.23,38.678,38.678,0,0,1,8.23,12.345A46.17,46.17,0,0,1,282.7,72.824Zm21.769,38.229h-22.3q-2.92,13.54-12.079,20.177t-23.5,6.637a46.744,46.744,0,0,1-19.38-3.717,37.985,37.985,0,0,1-13.54-9.956,38.783,38.783,0,0,1-7.7-14.336,54.48,54.48,0,0,1-2.124-17.124H306.595a109.274,109.274,0,0,0-2.257-26.283A76.083,76.083,0,0,0,294.25,40.967a60.113,60.113,0,0,0-19.38-19.247q-12.079-7.566-30.4-7.566a62.413,62.413,0,0,0-25.884,5.31A60.834,60.834,0,0,0,198.146,34.33,68.524,68.524,0,0,0,184.739,56.9a82.593,82.593,0,0,0-4.779,28.672,110.022,110.022,0,0,0,4.646,28.937,63.156,63.156,0,0,0,12.345,22.831A56.262,56.262,0,0,0,217.26,152.2q12.079,5.31,28.539,5.31,23.362,0,38.76-11.681T304.471,111.054Zm87.343,43.539L441.99,17.339H418.362L380.93,131.761H380.4L341.9,17.339H316.683l50.972,137.254ZM558.005,72.824H479.158a47,47,0,0,1,3.451-15,40.007,40.007,0,0,1,7.964-12.345,36.479,36.479,0,0,1,12.079-8.363,39.293,39.293,0,0,1,15.8-3.053,38.6,38.6,0,0,1,15.531,3.053,39.073,39.073,0,0,1,12.212,8.23,38.676,38.676,0,0,1,8.23,12.345A46.168,46.168,0,0,1,558.005,72.824Zm21.769,38.229h-22.3q-2.92,13.54-12.079,20.177t-23.5,6.637a46.743,46.743,0,0,1-19.38-3.717A37.985,37.985,0,0,1,488.98,124.2a38.781,38.781,0,0,1-7.7-14.336,54.478,54.478,0,0,1-2.124-17.124H581.9a109.274,109.274,0,0,0-2.257-26.283,76.08,76.08,0,0,0-10.088-25.486,60.111,60.111,0,0,0-19.38-19.247q-12.079-7.566-30.4-7.566a62.413,62.413,0,0,0-25.884,5.31A60.835,60.835,0,0,0,473.45,34.33,68.526,68.526,0,0,0,460.043,56.9a82.594,82.594,0,0,0-4.779,28.672,110.021,110.021,0,0,0,4.646,28.937,63.155,63.155,0,0,0,12.345,22.831A56.263,56.263,0,0,0,492.564,152.2q12.079,5.31,28.539,5.31,23.362,0,38.76-11.681T579.775,111.054ZM606.588-34.961V154.593h22.566V-34.961ZM680.658,86.1a68.282,68.282,0,0,1,3.319-22.168A47.837,47.837,0,0,1,693.135,47.6a39,39,0,0,1,13.672-10.088,41.612,41.612,0,0,1,33.185,0A39,39,0,0,1,753.665,47.6a47.837,47.837,0,0,1,9.159,16.327A68.283,68.283,0,0,1,766.143,86.1a68.283,68.283,0,0,1-3.318,22.168,46.377,46.377,0,0,1-9.159,16.194,39.744,39.744,0,0,1-13.672,9.956,41.611,41.611,0,0,1-33.185,0,39.744,39.744,0,0,1-13.672-9.956,46.378,46.378,0,0,1-9.159-16.194A68.282,68.282,0,0,1,680.658,86.1Zm-23.893,0a90.162,90.162,0,0,0,4.248,28.141,64.237,64.237,0,0,0,12.743,22.7,58.624,58.624,0,0,0,20.973,15.132q12.478,5.442,28.672,5.442,16.46,0,28.8-5.442a58.9,58.9,0,0,0,20.84-15.132,64.236,64.236,0,0,0,12.743-22.7A90.161,90.161,0,0,0,790.036,86.1a91.414,91.414,0,0,0-4.248-28.274,64.06,64.06,0,0,0-12.743-22.831A60.333,60.333,0,0,0,752.2,19.728q-12.345-5.575-28.8-5.575-16.194,0-28.672,5.575a60.03,60.03,0,0,0-20.973,15.265,64.061,64.061,0,0,0-12.743,22.831A91.416,91.416,0,0,0,656.764,86.1ZM817.38,17.339V206.892h22.566V136.274h.531a36.354,36.354,0,0,0,9.159,10.221,48.242,48.242,0,0,0,11.549,6.5,62.677,62.677,0,0,0,12.345,3.451,67.829,67.829,0,0,0,11.283,1.062q15.664,0,27.477-5.575a55.069,55.069,0,0,0,19.646-15.265,65.005,65.005,0,0,0,11.681-22.7,96.825,96.825,0,0,0,3.85-27.61,93.824,93.824,0,0,0-3.982-27.61A69.764,69.764,0,0,0,931.67,35.79a56.426,56.426,0,0,0-19.646-15.8q-11.814-5.841-27.743-5.841A65.4,65.4,0,0,0,858,19.33a33.786,33.786,0,0,0-17.522,16.593h-.531V17.339ZM923.573,84.771a90.284,90.284,0,0,1-2.124,19.646,51.971,51.971,0,0,1-6.9,16.991,36.281,36.281,0,0,1-12.61,11.947q-7.832,4.513-19.513,4.513t-19.911-4.38a38.645,38.645,0,0,1-13.407-11.548,48.291,48.291,0,0,1-7.566-16.593,80.364,80.364,0,0,1-.133-38.362,49.394,49.394,0,0,1,7.3-16.593,38.842,38.842,0,0,1,13.008-11.814q7.964-4.513,19.38-4.513a40.306,40.306,0,0,1,18.982,4.248,37.727,37.727,0,0,1,13.274,11.416,50.515,50.515,0,0,1,7.7,16.327A70.182,70.182,0,0,1,923.573,84.771Zm145.749-11.947H990.474a47,47,0,0,1,3.451-15,40.007,40.007,0,0,1,7.964-12.345,36.479,36.479,0,0,1,12.079-8.363,39.293,39.293,0,0,1,15.8-3.053,38.6,38.6,0,0,1,15.531,3.053,39.073,39.073,0,0,1,12.212,8.23,38.675,38.675,0,0,1,8.23,12.345A46.163,46.163,0,0,1,1069.322,72.824Zm21.77,38.229h-22.3q-2.92,13.54-12.079,20.177t-23.5,6.637a46.743,46.743,0,0,1-19.38-3.717,37.986,37.986,0,0,1-13.54-9.956,38.784,38.784,0,0,1-7.7-14.336,54.484,54.484,0,0,1-2.124-17.124h102.741a109.283,109.283,0,0,0-2.257-26.283,76.088,76.088,0,0,0-10.088-25.486,60.114,60.114,0,0,0-19.38-19.247q-12.079-7.566-30.4-7.566a62.414,62.414,0,0,0-25.885,5.31A60.835,60.835,0,0,0,984.766,34.33,68.525,68.525,0,0,0,971.359,56.9a82.6,82.6,0,0,0-4.779,28.672,110.016,110.016,0,0,0,4.646,28.937,63.154,63.154,0,0,0,12.345,22.831,56.263,56.263,0,0,0,20.309,14.867q12.079,5.31,28.539,5.31,23.362,0,38.76-11.681T1091.091,111.054Zm24.69-93.715V154.593h22.566V93.532a93.832,93.832,0,0,1,2.655-23.5,45.032,45.032,0,0,1,8.5-17.389,36.412,36.412,0,0,1,15.4-10.885q9.558-3.717,23.1-3.717V14.153q-18.318-.531-30.265,7.433t-20.177,24.69h-.531V17.339Zm276.366,3.186h23.893q-.531-15.663-5.973-26.946A52.505,52.505,0,0,0,1395.2-25.138a61.325,61.325,0,0,0-21.9-10.885,101.285,101.285,0,0,0-27.079-3.451,97.235,97.235,0,0,0-25.354,3.319,69.709,69.709,0,0,0-22.035,10.088A51.062,51.062,0,0,0,1283.3-8.811q-5.841,10.487-5.841,24.822,0,13.009,5.177,21.637a41.968,41.968,0,0,0,13.805,14.07,80.227,80.227,0,0,0,19.513,8.761q10.885,3.319,22.168,5.841t22.168,4.911A101.074,101.074,0,0,1,1379.8,77.47a38.043,38.043,0,0,1,13.8,9.956q5.177,6.106,5.177,15.929,0,10.354-4.248,16.991a30.914,30.914,0,0,1-11.15,10.486,50.446,50.446,0,0,1-15.531,5.442,94.156,94.156,0,0,1-17.124,1.593,81.024,81.024,0,0,1-20.707-2.655,51.526,51.526,0,0,1-17.655-8.23,42.24,42.24,0,0,1-12.212-14.2q-4.646-8.628-4.646-20.575h-23.893q0,17.256,6.239,29.867a57.267,57.267,0,0,0,16.991,20.708,74.415,74.415,0,0,0,24.955,12.079,111.142,111.142,0,0,0,30.132,3.982,115.237,115.237,0,0,0,26.15-3.053,75.671,75.671,0,0,0,23.761-9.823,55.717,55.717,0,0,0,17.389-17.522q6.77-10.752,6.77-25.884,0-14.07-5.177-23.362a46.119,46.119,0,0,0-13.805-15.4,73.121,73.121,0,0,0-19.513-9.69q-10.885-3.584-22.168-6.239t-22.167-4.911a116.091,116.091,0,0,1-19.513-5.708,38.387,38.387,0,0,1-13.805-8.894q-5.177-5.442-5.177-14.2,0-9.292,3.584-15.531a27.875,27.875,0,0,1,9.557-9.956,41.593,41.593,0,0,1,13.672-5.31,77.107,77.107,0,0,1,15.663-1.593q19.646,0,32.256,9.159T1392.147,20.525Zm90-3.186v-41.15h-22.566v41.15h-23.362V37.25h23.362v87.343q0,9.557,1.859,15.4a18.719,18.719,0,0,0,5.708,9.026,22.034,22.034,0,0,0,10.089,4.38,81.025,81.025,0,0,0,15,1.195h17.256V134.682h-10.354a75.253,75.253,0,0,1-8.628-.4,11.145,11.145,0,0,1-5.177-1.726,6.56,6.56,0,0,1-2.522-3.717,24.616,24.616,0,0,1-.664-6.372V37.25h27.345V17.339ZM1648.07,154.593V17.339H1625.5v77.52a55.6,55.6,0,0,1-2.522,17.124,38.89,38.89,0,0,1-7.566,13.672,33.6,33.6,0,0,1-12.61,9.026,45.991,45.991,0,0,1-17.92,3.186q-13.009,0-20.442-7.434t-7.434-20.177V17.339h-22.566V107.6a84.935,84.935,0,0,0,2.257,20.309,38.46,38.46,0,0,0,7.832,15.8,35.983,35.983,0,0,0,14.6,10.221q9.026,3.584,22.566,3.584,15.132,0,26.283-5.973t18.318-18.716h.531v21.769Zm50.442-67.432a90.284,90.284,0,0,1,2.124-19.646,51.97,51.97,0,0,1,6.9-16.991,35.934,35.934,0,0,1,12.743-11.947q7.964-4.513,19.38-4.513,11.681,0,19.911,4.38a38.647,38.647,0,0,1,13.407,11.548,48.287,48.287,0,0,1,7.566,16.593,80.362,80.362,0,0,1,.133,38.362,49.394,49.394,0,0,1-7.3,16.593,38.837,38.837,0,0,1-13.009,11.814q-7.964,4.513-19.38,4.513a40.307,40.307,0,0,1-18.982-4.248,37.727,37.727,0,0,1-13.274-11.416,50.5,50.5,0,0,1-7.7-16.327A70.175,70.175,0,0,1,1698.512,87.16ZM1804.7,154.593V-34.961h-22.566V35.657h-.531a36.346,36.346,0,0,0-9.159-10.221A52.031,52.031,0,0,0,1760.9,18.8a57.967,57.967,0,0,0-12.212-3.584,66.841,66.841,0,0,0-11.416-1.062q-15.663,0-27.477,5.708a56.412,56.412,0,0,0-19.646,15.4,65.013,65.013,0,0,0-11.681,22.7,96.833,96.833,0,0,0-3.849,27.61,93.82,93.82,0,0,0,3.982,27.61,68.249,68.249,0,0,0,11.814,22.831,57.094,57.094,0,0,0,19.645,15.663q11.814,5.841,27.743,5.841a66.9,66.9,0,0,0,26.283-5.044,33.211,33.211,0,0,0,17.522-16.46h.531v18.584ZM1934.79,72.824h-78.848a47,47,0,0,1,3.451-15,40.013,40.013,0,0,1,7.965-12.345,36.479,36.479,0,0,1,12.079-8.363,39.293,39.293,0,0,1,15.8-3.053,38.6,38.6,0,0,1,15.531,3.053,39.075,39.075,0,0,1,12.212,8.23,38.682,38.682,0,0,1,8.23,12.345A46.163,46.163,0,0,1,1934.79,72.824Zm21.769,38.229h-22.3q-2.921,13.54-12.079,20.177t-23.5,6.637a46.744,46.744,0,0,1-19.38-3.717,37.983,37.983,0,0,1-13.539-9.956,38.786,38.786,0,0,1-7.7-14.336,54.482,54.482,0,0,1-2.124-17.124h102.741a109.277,109.277,0,0,0-2.257-26.283,76.085,76.085,0,0,0-10.088-25.486,60.122,60.122,0,0,0-19.38-19.247q-12.08-7.566-30.4-7.566a62.415,62.415,0,0,0-25.885,5.31,60.836,60.836,0,0,0-20.442,14.867A68.525,68.525,0,0,0,1836.828,56.9a82.6,82.6,0,0,0-4.779,28.672,110.028,110.028,0,0,0,4.646,28.937,63.155,63.155,0,0,0,12.345,22.831,56.262,56.262,0,0,0,20.309,14.867q12.079,5.31,28.539,5.31,23.363,0,38.76-11.681T1956.56,111.054Zm25.486-93.715V154.593h22.566V77.072a55.6,55.6,0,0,1,2.522-17.124,38.9,38.9,0,0,1,7.566-13.672,33.6,33.6,0,0,1,12.61-9.026,45.991,45.991,0,0,1,17.92-3.186q13.008,0,20.442,7.433t7.434,20.177v92.918h22.566V64.329a84.922,84.922,0,0,0-2.257-20.309,38.456,38.456,0,0,0-7.832-15.8,37.1,37.1,0,0,0-14.6-10.354q-9.026-3.717-22.566-3.717-30.53,0-44.6,24.955h-.531V17.339Zm178.934,0v-41.15h-22.566v41.15h-23.363V37.25h23.363v87.343q0,9.557,1.858,15.4a18.72,18.72,0,0,0,5.708,9.026,22.033,22.033,0,0,0,10.088,4.38,81.027,81.027,0,0,0,15,1.195h17.256V134.682h-10.354a75.254,75.254,0,0,1-8.628-.4,11.145,11.145,0,0,1-5.177-1.726,6.559,6.559,0,0,1-2.522-3.717,24.629,24.629,0,0,1-.664-6.372V37.25h27.344V17.339Zm263.092,4.779h25.22a70.53,70.53,0,0,0-9.026-26.681,65.654,65.654,0,0,0-17.256-19.247,75.646,75.646,0,0,0-23.628-11.681,97.437,97.437,0,0,0-28.141-3.982q-21.769,0-38.628,7.832a79.827,79.827,0,0,0-28.141,21.371,93.725,93.725,0,0,0-17.124,31.725,126.453,126.453,0,0,0-5.841,38.893,133.654,133.654,0,0,0,5.443,38.76,89.518,89.518,0,0,0,16.327,31.327,75.607,75.607,0,0,0,27.344,20.84q16.46,7.566,38.495,7.566,36.371,0,57.344-19.911t24.69-55.751H2425.93a72.324,72.324,0,0,1-4.779,21.769,52.537,52.537,0,0,1-11.018,17.389,50.176,50.176,0,0,1-16.725,11.416,56.266,56.266,0,0,1-22.167,4.115q-16.991,0-29.2-6.372a57.03,57.03,0,0,1-20.044-17.124,73.339,73.339,0,0,1-11.548-25.221,122.833,122.833,0,0,1-3.717-30.663,109.81,109.81,0,0,1,3.717-28.672A73.9,73.9,0,0,1,2321.994,5.26a57.374,57.374,0,0,1,19.911-17.124q12.079-6.372,29.07-6.372,19.912,0,34.38,10.088T2424.072,22.118Zm56.016-57.078V154.593h22.566V-34.961Zm171.235,189.553V17.339h-22.566v77.52a55.607,55.607,0,0,1-2.522,17.124,38.89,38.89,0,0,1-7.566,13.672,33.6,33.6,0,0,1-12.611,9.026,45.988,45.988,0,0,1-17.92,3.186q-13.009,0-20.442-7.434t-7.433-20.177V17.339H2537.7V107.6a84.948,84.948,0,0,0,2.256,20.309,38.471,38.471,0,0,0,7.832,15.8,35.985,35.985,0,0,0,14.6,10.221q9.027,3.584,22.566,3.584,15.133,0,26.283-5.973t18.318-18.716h.531v21.769ZM2686.1-34.961V154.593h22.566V136.274h.531a36.36,36.36,0,0,0,9.159,10.221,48.242,48.242,0,0,0,11.548,6.5,62.678,62.678,0,0,0,12.345,3.451,67.827,67.827,0,0,0,11.283,1.062q15.664,0,27.478-5.575a55.076,55.076,0,0,0,19.646-15.265,65,65,0,0,0,11.68-22.7,96.807,96.807,0,0,0,3.85-27.61,93.824,93.824,0,0,0-3.982-27.61,69.755,69.755,0,0,0-11.814-22.964,56.427,56.427,0,0,0-19.645-15.8q-11.814-5.841-27.743-5.841a65.4,65.4,0,0,0-26.283,5.177A33.791,33.791,0,0,0,2709.2,35.923h-.531V-34.961ZM2792.294,84.771a90.269,90.269,0,0,1-2.124,19.646,51.97,51.97,0,0,1-6.9,16.991,36.281,36.281,0,0,1-12.611,11.947q-7.831,4.513-19.512,4.513t-19.911-4.38a38.652,38.652,0,0,1-13.407-11.548,48.289,48.289,0,0,1-7.566-16.593,80.37,80.37,0,0,1-.133-38.362,49.383,49.383,0,0,1,7.3-16.593,38.845,38.845,0,0,1,13.008-11.814q7.965-4.513,19.38-4.513a40.31,40.31,0,0,1,18.982,4.248,37.728,37.728,0,0,1,13.274,11.416,50.51,50.51,0,0,1,7.7,16.327A70.18,70.18,0,0,1,2792.294,84.771Zm64.246,26.548h-22.566q.531,12.743,5.31,21.637a39.936,39.936,0,0,0,12.743,14.336,53.4,53.4,0,0,0,18.318,7.832,96.55,96.55,0,0,0,21.769,2.389,111.511,111.511,0,0,0,20.841-1.991,56.6,56.6,0,0,0,18.849-7.035,40.469,40.469,0,0,0,13.54-13.274q5.176-8.23,5.177-20.708,0-9.823-3.849-16.46a34.361,34.361,0,0,0-10.088-11.017,54.1,54.1,0,0,0-14.336-7.035,169.481,169.481,0,0,0-16.592-4.513q-7.965-1.858-15.929-3.584a91.877,91.877,0,0,1-14.336-4.248,32.848,32.848,0,0,1-10.487-6.372,12.706,12.706,0,0,1-4.115-9.69,13.388,13.388,0,0,1,2.655-8.628,18.982,18.982,0,0,1,6.9-5.31,34.421,34.421,0,0,1,9.425-2.788,67.143,67.143,0,0,1,10.221-.8,51.234,51.234,0,0,1,11.018,1.195,33.772,33.772,0,0,1,9.955,3.849,22.6,22.6,0,0,1,7.434,7.035,22.843,22.843,0,0,1,3.451,11.017h22.566q-.8-12.478-5.31-20.84a35.722,35.722,0,0,0-12.079-13.274,49.751,49.751,0,0,0-17.389-6.9,108.369,108.369,0,0,0-21.5-1.991,75.8,75.8,0,0,0-18.186,2.257,54.856,54.856,0,0,0-16.46,6.9,37.987,37.987,0,0,0-11.946,12.079q-4.646,7.433-4.646,17.787,0,13.274,6.636,20.708a44.8,44.8,0,0,0,16.593,11.548,112.274,112.274,0,0,0,21.636,6.372q11.682,2.257,21.637,5.044a56.472,56.472,0,0,1,16.593,7.3q6.638,4.513,6.637,13.274a16.627,16.627,0,0,1-3.186,10.487,20.191,20.191,0,0,1-8.1,6.239,40.876,40.876,0,0,1-10.752,2.92,82.626,82.626,0,0,1-11.15.8,66.888,66.888,0,0,1-13.407-1.327,37.611,37.611,0,0,1-11.681-4.38,24.013,24.013,0,0,1-8.363-8.23A25.406,25.406,0,0,1,2856.54,111.319Zm174.421-146.28h34.513l47.521,150h.53l48.583-150h33.716l-64.778,189.553h-36.9Zm183.713,0h33.185V154.593h-33.185Zm55.751,0h153.448V-6.289h-60.264V154.593h-33.185V-6.289h-60Z" transform="translate(-1261.387 238.551)" fill="#fff"/>
      </g>
    </g>
  </g>
</svg>
