<svg xmlns="http://www.w3.org/2000/svg" xmlns:xlink="http://www.w3.org/1999/xlink" width="1686" height="512" viewBox="0 0 1686 512">
  <defs>
    <clipPath id="clip-Short_Logo">
      <rect width="1686" height="512"/>
    </clipPath>
  </defs>
  <g id="Short_Logo" data-name="Short Logo" clip-path="url(#clip-Short_Logo)">
    <g id="Group_3" data-name="Group 3" transform="translate(-5.554 -33.634)">
      <g id="Group_1" data-name="Group 1" transform="translate(81.088 171.543)">
        <path id="Path_2" data-name="Path 2" d="M33.954,1.837,167.924,0c18.5-.253,33.287,14.3,33.034,32.5S185.5,65.676,167.007,65.929L33.037,67.763C14.54,68.017-.25,53.464,0,35.259S15.457,2.09,33.954,1.837Z" transform="translate(174.038 236.941) rotate(-150)" fill="#fff" opacity="0.998"/>
        <path id="Subtraction_2" data-name="Subtraction 2" d="M33.8,126.694h0a34.816,34.816,0,0,1-16.665-4.244,33.226,33.226,0,0,1-12.6-12.111A31.617,31.617,0,0,1,1.093,85.781a32.607,32.607,0,0,1,15.8-20.109l66.3-37.08,50.635,28.318a34.689,34.689,0,0,0,33.27.273L50.647,122.308A34.579,34.579,0,0,1,33.8,126.694ZM176.086,50.172l0,0a32.882,32.882,0,0,0,5.664-8.711A32.323,32.323,0,0,1,176.086,50.172Zm8.281-24.082a32,32,0,0,0-3.122-11.439,31.7,31.7,0,0,1,3.127,11.439ZM171.617,2.918A34.259,34.259,0,0,0,167.585.276L167.092,0a33.541,33.541,0,0,1,4.527,2.914Z" transform="translate(229.712 96.065)" fill="#fff" opacity="0.998"/>
        <path id="Path_3" data-name="Path 3" d="M33.037,67.763l133.97-1.834c18.5-.253,33.7-15.217,33.951-33.422S186.422-.25,167.924,0L33.954,1.837C15.457,2.09.256,17.054,0,35.259S14.54,68.017,33.037,67.763Z" transform="translate(251.873 0) rotate(30)" fill="#fff" opacity="0.998"/>
      </g>
      <path id="Path_6" data-name="Path 6" d="M28.839,129.284V-14.329H70.316q17.109,0,28.774,4.8a46.686,46.686,0,0,1,19.053,14,56.908,56.908,0,0,1,10.628,22.294,123.9,123.9,0,0,1,3.24,29.682q0,17.109-3.5,29.163a71.03,71.03,0,0,1-8.943,20.09,46.791,46.791,0,0,1-12.313,12.7,60.423,60.423,0,0,1-13.869,7.129,58.164,58.164,0,0,1-13.221,3.111,103.293,103.293,0,0,1-10.369.648ZM4.212-35.067v185.09H67.723q23.071,0,39.921-6.481a69.657,69.657,0,0,0,27.738-18.794q10.888-12.313,16.072-30.33t5.185-41.347q0-44.587-23.071-66.363T67.723-35.067Zm289.56,54.179H317.1Q316.584,3.817,311.27-7.2a51.267,51.267,0,0,0-14.517-18.276A59.88,59.88,0,0,0,275.366-36.1a98.9,98.9,0,0,0-26.441-3.37,94.946,94.946,0,0,0-24.756,3.24,68.069,68.069,0,0,0-21.516,9.851,49.859,49.859,0,0,0-15.165,16.85q-5.7,10.24-5.7,24.238,0,12.7,5.055,21.127a40.981,40.981,0,0,0,13.48,13.739,78.341,78.341,0,0,0,19.053,8.555q10.628,3.24,21.646,5.7t21.646,4.8a98.685,98.685,0,0,1,19.053,6.092,37.148,37.148,0,0,1,13.48,9.721q5.055,5.962,5.055,15.554,0,10.11-4.148,16.591a30.185,30.185,0,0,1-10.888,10.24,49.26,49.26,0,0,1-15.165,5.314,91.939,91.939,0,0,1-16.72,1.555,79.118,79.118,0,0,1-20.22-2.592,50.314,50.314,0,0,1-17.239-8.036,41.249,41.249,0,0,1-11.925-13.869q-4.537-8.425-4.537-20.09H176.081q0,16.85,6.092,29.163a55.917,55.917,0,0,0,16.591,20.22,72.663,72.663,0,0,0,24.368,11.795,108.525,108.525,0,0,0,29.423,3.888,112.525,112.525,0,0,0,25.534-2.981,73.893,73.893,0,0,0,23.2-9.592,54.4,54.4,0,0,0,16.98-17.109q6.61-10.5,6.61-25.275,0-13.739-5.055-22.812a45.034,45.034,0,0,0-13.48-15.035A71.4,71.4,0,0,0,287.291,51.9q-10.628-3.5-21.646-6.092T244,41.017a113.346,113.346,0,0,1-19.053-5.573,37.482,37.482,0,0,1-13.48-8.684q-5.055-5.314-5.055-13.869,0-9.073,3.5-15.165A27.218,27.218,0,0,1,219.243-12a40.611,40.611,0,0,1,13.35-5.185,75.291,75.291,0,0,1,15.295-1.555q19.183,0,31.5,8.943T293.772,19.112Zm191.052,1.555h24.627a68.869,68.869,0,0,0-8.814-26.053,64.1,64.1,0,0,0-16.85-18.794,73.86,73.86,0,0,0-23.072-11.406,95.14,95.14,0,0,0-27.478-3.888q-21.257,0-37.718,7.647a77.949,77.949,0,0,0-27.478,20.868,91.515,91.515,0,0,0-16.72,30.978A123.485,123.485,0,0,0,345.617,58a130.513,130.513,0,0,0,5.314,37.848,87.416,87.416,0,0,0,15.943,30.589,73.826,73.826,0,0,0,26.7,20.35q16.072,7.388,37.588,7.388,35.514,0,55.993-19.442T511.265,80.29H486.638a70.623,70.623,0,0,1-4.666,21.257,51.3,51.3,0,0,1-10.758,16.98,49,49,0,0,1-16.331,11.147,54.943,54.943,0,0,1-21.646,4.018q-16.591,0-28.515-6.221a55.689,55.689,0,0,1-19.572-16.72,71.611,71.611,0,0,1-11.276-24.627,119.936,119.936,0,0,1-3.629-29.941,107.22,107.22,0,0,1,3.629-28A72.164,72.164,0,0,1,385.15,4.206a56.022,56.022,0,0,1,19.442-16.72q11.795-6.222,28.386-6.222,19.442,0,33.57,9.851T484.824,20.667ZM592.4-35.067h33.7l46.4,146.465h.518L720.463-35.067h32.922l-63.252,185.09H654.1Zm179.387,0h32.4v185.09h-32.4Zm54.438,0H976.064v28H917.219V150.023h-32.4V-7.07H826.229Z" transform="translate(639.134 241.124)" fill="#fff"/>
      <path id="Subtraction_3" data-name="Subtraction 3" d="M1.5,107.773A31.506,31.506,0,0,1,0,98.9a31.889,31.889,0,0,0,1.5,8.872ZM101.268,98.1h0L50.632,69.781a34.7,34.7,0,0,0-33.224-.3l116.406-65.1a34.69,34.69,0,0,1,33.51-.143,33.225,33.225,0,0,1,12.6,12.112,31.617,31.617,0,0,1,3.442,24.558,32.607,32.607,0,0,1-15.8,20.109L101.269,98.1ZM5.038,80.907l0,0a32.615,32.615,0,0,1,2.047-2.86A34.333,34.333,0,0,0,5.038,80.907Z" transform="translate(92.827 185.725)" fill="#fff" opacity="0.998"/>
    </g>
  </g>
</svg>
