<svg xmlns="http://www.w3.org/2000/svg" width="332.986" height="380.292" viewBox="0 0 332.986 380.292"><defs><style>.a{fill:#fff;}</style></defs><path class="a" d="M417.281,472.017a142.758,142.758,0,0,0-18.1-55.14,195.8,195.8,0,0,0-16.416-24.113c-5.821-7.385-12.3-14.155-18.613-21.121-6.049-6.705-11.945-13.685-15.849-21.916a42.53,42.53,0,0,1-2.815-27.412c4.188-18.971,18.482-34.061,33.754-45.191a136.854,136.854,0,0,1,51.962-23.21,128.735,128.735,0,0,1,28.352-2.862c9.911.112,20.162,1.5,29.119,5.993,7.766,3.9,14.425,9.795,18.147,17.78,3.909,8.487,3.886,18.385,2.745,27.454-2.438,19.4-9.627,38.272-16.858,56.3-7.4,18.473-15.537,36.648-21.586,55.624a193.322,193.322,0,0,0-6.924,28.487c-1.363,8.683-2.541,18.04.931,26.393a20.306,20.306,0,0,0,8.106,9.646c5.616,3.5,10.586-5.2,5.151-8.813-2.587-1.722-3.769-4.435-4.528-7.738a37.1,37.1,0,0,1-.353-11.335,157.115,157.115,0,0,1,6.012-28.97c5.7-19.594,13.927-38.319,21.516-57.234,7.5-18.669,14.736-37.886,17.728-57.881,1.517-10.135,1.959-20.72-1.1-30.637a45.28,45.28,0,0,0-17.026-23.238c-16.751-12.242-39.449-13.029-59.272-10.544a146.188,146.188,0,0,0-56.736,19.464C367.6,272,351.081,286.068,341.858,303.95c-4.881,9.46-7.771,20.218-7.185,30.92a55.8,55.8,0,0,0,9.707,27.686c5.333,8.013,11.987,14.988,18.575,21.958A224.009,224.009,0,0,1,381.568,406.5c11.428,15.751,20.706,33.345,26.021,52.116a132.761,132.761,0,0,1,3.192,14.3c.605,3.643,6.919,2.838,6.514-.884Z" transform="translate(-259.844 -189.653)"/><path class="a" d="M442.639,743.962c5,4.146,11.2,5.006,17.519,4.988,7.752,0,15.519-.4,23.266-.614q24.338-.7,48.668-1.47c9.111-.312,18.231-.493,27.346-.707l-1.014-7.5c-31.339,6.649-62.52,14.03-93.743,21.2-7.948,1.824-16.123,3.1-22.731,8.208-2.35,1.815-1.093,6.487,1.829,6.924,18.729,2.792,37.425.539,56.22-.065,16.323-.521,33.815.284,48.5,8.241l2.108-7.784c-19.138-.1-38.3.931-57.434,1.5l-28.715.893c-4.444.14-8.906.158-13.341.433-3.96.242-7.989,1.089-10.735,4.188-2.406,2.709-1.247,6.333,2,7.58,32.437,12.494,67.806,13.857,101.318,22.121l1.191-8.841a292.41,292.41,0,0,0-47.751,3.424c-7.7,1.191-15.309,2.764-22.889,4.555-6.952,1.643-13.959,3.676-19.781,7.953-1.991,1.461-2.983,3.974-1.642,6.268a4.616,4.616,0,0,0,6.268,1.642c5.44-3.722,11.721-5.5,18.054-7.045,7.408-1.81,14.932-3.22,22.461-4.407a287,287,0,0,1,45.28-3.405c5,0,6.194-7.613,1.2-8.841-33.666-8.166-68.718-9.729-101.295-22.205l2,7.585c1.862-2.126,5.831-1.605,8.4-1.689l13.894-.465,26.862-.87c18.212-.591,36.481-.805,54.656-2.062,3.825-.265,6.049-5.77,2.108-7.784-15.635-7.948-32.94-9.772-50.254-9.4-18.776.419-37.742,3.257-56.461.465l1.829,6.924c5.03-3.89,12.615-4.6,18.613-5.983l22.624-5.2q22.845-5.256,45.694-10.506c8.59-2,17.151-4.1,25.709-6.217,4.127-1.024,3.332-7.705-1.014-7.5-19.771.931-39.552,1.651-59.328,2.513L470.456,742.3c-4.383.191-8.8.554-13.187.4-3.6-.121-7.445-.712-10.335-3.062-2.987-2.443-7.3,1.792-4.286,4.291Z" transform="translate(-315.717 -455.544)"/><path class="a" d="M511.668,914.359c3.876,8.376,15.1,10.665,23.41,9.483a25.586,25.586,0,0,0,12.052-5.03c3.257-2.522,6.98-6.435,7.664-10.7.609-3.927-4.188-6.282-6.542-2.755-1.8,2.68-2.917,5.323-5.467,7.445a18.227,18.227,0,0,1-8.473,3.83c-5.626,1.038-13.844-.181-16.919-5.648-2.127-3.779-7.487-.465-5.724,3.35Z" transform="translate(-354.332 -543.84)"/><path class="a" d="M486.624,167.149a134.667,134.667,0,0,0-8.7-29.65c-1.889-4.272-9.106-1.233-7.575,3.192,3.257,9.446,6.44,18.8,8.5,28.6C479.914,174.412,487.568,172.211,486.624,167.149Z" transform="translate(-332.313 -133.104)"/><path class="a" d="M596.455,164.363c-1.2-1.554-1.126-3.229-.931-5.118.3-2.634.88-5.249,1.4-7.845a123.543,123.543,0,0,1,4.491-15.928,4.031,4.031,0,0,0-2.792-4.909,4.072,4.072,0,0,0-4.914,2.792,98.282,98.282,0,0,0-4.988,18.924c-.865,5.686-2.075,11.8,1.917,16.584,2.671,3.192,8.408-1.154,5.825-4.495Z" transform="translate(-395.25 -130.416)"/><path class="a" d="M714.448,187.628c-.615-1.321,1.535-4.048,2.131-5.049,1.256-2.117,2.541-4.216,3.918-6.258a117.449,117.449,0,0,1,8.93-11.526c3.257-3.723-2.108-9.213-5.491-5.491a106.139,106.139,0,0,0-11.479,15.165c-3,4.8-7.226,11.014-4.076,16.7,2.228,4.02,7.934.493,6.049-3.541Z" transform="translate(-459.103 -145.199)"/><path class="a" d="M777.055,279.5a302.1,302.1,0,0,0,48.347-9.153c4.3-1.187,2.475-7.869-1.862-6.691a436.087,436.087,0,0,1-47.285,10.06c-3.257.507-2.522,6.138.782,5.784Z" transform="translate(-494.866 -201.586)"/><path class="a" d="M785.5,386.947c6.891.991,13.932,1.163,20.856,1.913s13.713,1.456,20.543,2.41c2.02.284,4.053-.489,4.654-2.634.5-1.81-.614-4.3-2.634-4.653-7.035-1.172-14.1-2.275-21.2-2.983-6.98-.693-14.2-1.694-21.2-1.475-4.034.131-5.389,6.784-1.005,7.413Z" transform="translate(-499.487 -263.594)"/><path class="a" d="M756.9,483.263q8.841,5.737,17.77,11.279c5.947,3.676,11.87,7.566,18.147,10.674a3.929,3.929,0,0,0,3.965-6.78c-5.807-3.918-12.024-7.254-18.013-10.893s-11.945-7.357-17.854-11.135c-4.318-2.764-8.273,4.076-4.006,6.854Z" transform="translate(-484.669 -315.068)"/><path class="a" d="M702.04,570.512c4.272,4.565,9.441,8.492,14.076,12.7s9.217,8.683,14.1,12.7c3.844,3.165,9.083-1.8,5.551-5.551-4.425-4.708-9.339-8.971-14.122-13.308s-9.46-9.129-14.69-12.885c-3.857-2.792-7.943,3.136-4.914,6.37Z" transform="translate(-455.746 -361.946)"/><path class="a" d="M345.85,227.54a125.623,125.623,0,0,0-13.494-13.96c-4.872-4.285-10-8.762-15.77-11.8-3.992-2.1-8.906,3.392-5.077,6.58,4.872,4.053,10.214,7.492,15.09,11.558s9.576,8.324,14.076,12.815c3.4,3.392,8.157-1.614,5.184-5.179Z" transform="translate(-246.758 -168.327)"/><path class="a" d="M227.128,330.06c-8.376.084-16.84.3-25.178-.744-8-1.01-15.355-3.969-23.159-5.793-4.188-.982-6.826,4.779-2.973,7.059,7.268,4.3,16.286,5.956,24.569,7.142a162.989,162.989,0,0,0,26.742,1.15C232.786,338.756,232.81,330,227.128,330.06Z" transform="translate(-173.945 -233.607)"/><path class="a" d="M247.464,475.631c-10.9-2.559-23.154-3.155-33.828.652-4.714,1.68-2.792,8.068,2.034,7.361,9.948-1.47,19.66-2.159,29.566.065C250.479,484.882,252.722,476.869,247.464,475.631Z" transform="translate(-193.718 -313.895)"/><path class="a" d="M273.859,556.213c-3.4-1.326-7.077-.763-10.493.214-3.508,1.01-6.98,2.159-10.4,3.4a119.235,119.235,0,0,0-20.4,9.427,3.723,3.723,0,0,0-1.308,4.984c1.1,1.861,3.164,2.075,4.983,1.308,6-2.536,12.024-5.058,18.147-7.278q4.532-1.647,9.143-3.03c2.569-.777,5.509-2.052,8.176-1.2a4.109,4.109,0,0,0,4.993-2.834C277.325,558.907,275.906,557.018,273.859,556.213Z" transform="translate(-204.334 -357.665)"/><path class="a" d="M346.457,617.922c-8.6,8.241-16.751,16.928-25.485,25.052-3.951,3.672,1.9,9.427,5.891,5.891,8.883-7.873,17.831-15.961,25.55-24.992C355.9,619.8,350.427,614.125,346.457,617.922Z" transform="translate(-251.856 -390.408)"/><path class="a" d="M497.262,546.795c-1.033-19.515-2.173-39.059-5.393-58.36a188.694,188.694,0,0,0-17.715-54.549c-4.6-9.125-9.507-18.589-9.153-29.087l-8.036,2.173q5.933,7.795,11.884,15.579c3.35,4.388,6.691,10.028,12.349,11.633,5.984,1.712,11.009-2.69,14.918-6.617a59.368,59.368,0,0,0,10.423-14.239l-8.106-1.056c.745,4.23-.647,8.557-.4,12.815a17.461,17.461,0,0,0,3.829,10.381,11.191,11.191,0,0,0,9.851,3.96c3.685-.4,6.784-2.936,10.414-3.257l-4.383-4.383c.735,7.91-2.327,15.183-4.374,22.67s-3.723,15.183-5.156,22.865a270.112,270.112,0,0,0-4.6,46.969,155.785,155.785,0,0,0,1.629,26.789c.819,4.909,8.627,3.662,8.566-1.163-.093-7.808-.684-15.6-.694-23.415,0-7.668.242-15.355.847-22.977a249.873,249.873,0,0,1,7.841-45.368c2.327-8.534,5.584-17.408,4.7-26.374-.214-2.173-1.862-4.653-4.383-4.383-3.29.33-5.933,1.643-9,2.722-2.085.735-3.722,1.019-4.946-1.028-1.368-2.262-1.275-5.016-1.1-7.548.265-3.955.642-7.682-.088-11.633-.689-3.723-6.421-4.328-8.106-1.061a51.107,51.107,0,0,1-7.58,11.112c-1.675,1.861-5.64,7.185-8.562,5.509a14.51,14.51,0,0,1-3.773-3.853c-1.54-1.982-3.052-3.992-4.579-5.984l-9.976-13.029c-2.494-3.257-7.91-2.433-8.036,2.178-.293,9.65,3.187,18.669,7.324,27.216s8.557,16.84,11.772,25.807c6.468,18.054,9.869,37.062,12.01,56.07,1.233,10.944,2.089,21.926,2.931,32.9.331,4.351,7.082,4.435,6.85,0Z" transform="translate(-324.944 -274.9)"/></svg>