<svg xmlns="http://www.w3.org/2000/svg" xmlns:xlink="http://www.w3.org/1999/xlink" width="5904" height="693" viewBox="0 0 5904 693">
  <defs>
    <clipPath id="clip-Long_Logo">
      <rect width="5904" height="693"/>
    </clipPath>
  </defs>
  <g id="Long_Logo" data-name="Long Logo" clip-path="url(#clip-Long_Logo)">
    <rect width="5904" height="693" fill="#fff"/>
    <g id="Group_2" data-name="Group 2" transform="translate(2209.939 -11.453)">
      <g id="Group_1" data-name="Group 1" transform="translate(-2066.912 171.543)">
        <path id="Path_1" data-name="Path 1" d="M47.579,0,240.516,2.646c26.639.365,48.53,21.914,48.895,48.132S268.476,97.954,241.837,97.59L48.9,94.949C22.26,94.584.369,73.034,0,46.816S20.94-.36,47.579,0Z" transform="translate(299.438 84.519) rotate(150)" fill="#fe2c25" opacity="0.998"/>
        <path id="Path_2" data-name="Path 2" d="M48.9,2.646,241.837,0C268.476-.36,289.775,20.6,289.411,46.816s-22.256,47.768-48.895,48.132L47.579,97.59C20.94,97.954-.36,77,0,50.778S22.26,3.01,48.9,2.646Z" transform="translate(250.641 323.409) rotate(-150)" fill="#2785fc" opacity="0.998"/>
        <path id="Path_4" data-name="Path 4" d="M48.9,94.949,241.837,97.59c26.639.365,47.939-20.594,47.574-46.812S267.155,3.01,240.516,2.646L47.579,0C20.94-.36-.36,20.6,0,46.816S22.26,94.584,48.9,94.949Z" transform="translate(313.938 238.889) rotate(-30)" fill="#ffba00" opacity="0.998"/>
        <path id="Path_3" data-name="Path 3" d="M47.579,97.59l192.937-2.641c26.639-.365,48.53-21.914,48.895-48.132S268.476-.36,241.837,0L48.9,2.646C22.26,3.01.369,24.56,0,50.778S20.94,97.954,47.579,97.59Z" transform="translate(362.735 0) rotate(30)" fill="#00a050" opacity="0.998"/>
      </g>
      <path id="Path_5" data-name="Path 5" d="M39.678,203.564V-3.261H99.411q24.64,0,41.44,6.907a67.235,67.235,0,0,1,27.44,20.16q10.64,13.253,15.307,32.106t4.667,42.746q0,24.64-5.04,42t-12.88,28.933a67.386,67.386,0,0,1-17.733,18.293,87.019,87.019,0,0,1-19.973,10.267,83.761,83.761,0,0,1-19.04,4.48,148.744,148.744,0,0,1-14.933.933ZM4.212-33.127V233.431H95.678q33.226,0,57.493-9.333t39.946-27.066q15.68-17.733,23.147-43.68T223.73,93.8q0-64.213-33.226-95.573T95.678-33.127ZM395.836,118.445H284.956a66.1,66.1,0,0,1,4.853-21.093,56.261,56.261,0,0,1,11.2-17.36A51.3,51.3,0,0,1,318,68.232a55.255,55.255,0,0,1,22.213-4.293,54.285,54.285,0,0,1,21.84,4.293,54.947,54.947,0,0,1,17.173,11.573A54.391,54.391,0,0,1,390.8,97.165,64.927,64.927,0,0,1,395.836,118.445Zm30.613,53.76h-31.36q-4.107,19.04-16.987,28.373t-33.04,9.333q-15.68,0-27.253-5.227a53.416,53.416,0,0,1-19.04-14,54.538,54.538,0,0,1-10.827-20.16,76.612,76.612,0,0,1-2.987-24.08H429.435a153.667,153.667,0,0,0-3.173-36.96,106.991,106.991,0,0,0-14.187-35.84,84.534,84.534,0,0,0-27.253-27.066q-16.987-10.64-42.746-10.64a87.768,87.768,0,0,0-36.4,7.467A85.548,85.548,0,0,0,276.93,64.312a96.362,96.362,0,0,0-18.853,31.733,116.145,116.145,0,0,0-6.72,40.32,154.718,154.718,0,0,0,6.533,40.693,88.813,88.813,0,0,0,17.36,32.106,79.119,79.119,0,0,0,28.56,20.907q16.987,7.467,40.133,7.467,32.853,0,54.506-16.427T426.449,172.2Zm122.826,61.226L619.834,40.419H586.608l-52.64,160.905h-.747L479.088,40.419H443.622L515.3,233.431Zm233.7-114.986H672.1a66.093,66.093,0,0,1,4.853-21.093,56.261,56.261,0,0,1,11.2-17.36,51.3,51.3,0,0,1,16.986-11.76,55.255,55.255,0,0,1,22.213-4.293,54.286,54.286,0,0,1,21.84,4.293,54.947,54.947,0,0,1,17.173,11.573,54.389,54.389,0,0,1,11.573,17.36A64.922,64.922,0,0,1,782.979,118.445Zm30.613,53.76h-31.36q-4.107,19.04-16.987,28.373t-33.04,9.333q-15.68,0-27.253-5.227a53.415,53.415,0,0,1-19.04-14,54.536,54.536,0,0,1-10.827-20.16,76.609,76.609,0,0,1-2.987-24.08H816.579a153.669,153.669,0,0,0-3.173-36.96,106.988,106.988,0,0,0-14.187-35.84,84.532,84.532,0,0,0-27.253-27.066q-16.987-10.64-42.746-10.64a87.768,87.768,0,0,0-36.4,7.467,85.549,85.549,0,0,0-28.746,20.907A96.364,96.364,0,0,0,645.22,96.045a116.148,116.148,0,0,0-6.72,40.32,154.716,154.716,0,0,0,6.533,40.693,88.812,88.812,0,0,0,17.36,32.106,79.119,79.119,0,0,0,28.56,20.907q16.987,7.467,40.133,7.467,32.853,0,54.506-16.427T813.592,172.2ZM851.3-33.127V233.431h31.733V-33.127ZM955.458,137.111q0-17.547,4.667-31.173A67.27,67.27,0,0,1,973,82.978a54.85,54.85,0,0,1,19.227-14.187,58.516,58.516,0,0,1,46.666,0,54.849,54.849,0,0,1,19.226,14.187,67.271,67.271,0,0,1,12.88,22.96q4.667,13.627,4.667,31.173T1071,168.284a65.219,65.219,0,0,1-12.88,22.773,55.89,55.89,0,0,1-19.226,14,58.516,58.516,0,0,1-46.666,0,55.891,55.891,0,0,1-19.227-14,65.218,65.218,0,0,1-12.88-22.773Q955.458,154.658,955.458,137.111Zm-33.6,0a126.788,126.788,0,0,0,5.973,39.573,90.331,90.331,0,0,0,17.92,31.92,82.439,82.439,0,0,0,29.493,21.28q17.547,7.653,40.32,7.653,23.146,0,40.506-7.653a82.827,82.827,0,0,0,29.307-21.28,90.33,90.33,0,0,0,17.92-31.92,126.788,126.788,0,0,0,5.973-39.573,128.55,128.55,0,0,0-5.973-39.76,90.084,90.084,0,0,0-17.92-32.106,84.843,84.843,0,0,0-29.307-21.467q-17.36-7.84-40.506-7.84-22.773,0-40.32,7.84a84.416,84.416,0,0,0-29.493,21.467,90.084,90.084,0,0,0-17.92,32.106A128.55,128.55,0,0,0,921.858,137.111Zm225.865-96.693V306.977h31.733V207.671h.747a51.122,51.122,0,0,0,12.88,14.373,67.839,67.839,0,0,0,16.24,9.147,88.14,88.14,0,0,0,17.36,4.853,95.386,95.386,0,0,0,15.866,1.493q22.027,0,38.64-7.84a77.44,77.44,0,0,0,27.626-21.467,91.413,91.413,0,0,0,16.427-31.92,136.158,136.158,0,0,0,5.413-38.826,131.939,131.939,0,0,0-5.6-38.826,98.107,98.107,0,0,0-16.613-32.293,79.349,79.349,0,0,0-27.626-22.213q-16.613-8.213-39.013-8.213a91.973,91.973,0,0,0-36.96,7.28,47.511,47.511,0,0,0-24.64,23.333h-.747V40.419Zm149.332,94.826a126.964,126.964,0,0,1-2.987,27.626,73.083,73.083,0,0,1-9.706,23.893,51.019,51.019,0,0,1-17.733,16.8q-11.013,6.347-27.44,6.347t-28-6.16a54.345,54.345,0,0,1-18.853-16.24,67.908,67.908,0,0,1-10.64-23.333,113.013,113.013,0,0,1-.187-53.946A69.46,69.46,0,0,1,1191.776,86.9a54.621,54.621,0,0,1,18.293-16.613q11.2-6.347,27.253-6.347,15.307,0,26.693,5.973a53.054,53.054,0,0,1,18.667,16.053,71.035,71.035,0,0,1,10.827,22.96A98.693,98.693,0,0,1,1297.055,135.245Zm204.958-16.8H1391.135a66.1,66.1,0,0,1,4.853-21.093,56.261,56.261,0,0,1,11.2-17.36,51.3,51.3,0,0,1,16.986-11.76,55.255,55.255,0,0,1,22.213-4.293,54.287,54.287,0,0,1,21.84,4.293A54.946,54.946,0,0,1,1485.4,79.805a54.388,54.388,0,0,1,11.573,17.36A64.917,64.917,0,0,1,1502.014,118.445Zm30.613,53.76h-31.36q-4.107,19.04-16.987,28.373t-33.04,9.333q-15.68,0-27.253-5.227a53.417,53.417,0,0,1-19.04-14,54.541,54.541,0,0,1-10.827-20.16,76.618,76.618,0,0,1-2.987-24.08h144.479a153.671,153.671,0,0,0-3.173-36.96,106.993,106.993,0,0,0-14.187-35.84A84.535,84.535,0,0,0,1491,46.579q-16.987-10.64-42.746-10.64a87.77,87.77,0,0,0-36.4,7.467,85.547,85.547,0,0,0-28.746,20.907,96.362,96.362,0,0,0-18.853,31.733,116.148,116.148,0,0,0-6.72,40.32,154.706,154.706,0,0,0,6.533,40.693,88.81,88.81,0,0,0,17.36,32.106,79.119,79.119,0,0,0,28.56,20.907q16.987,7.467,40.133,7.467,32.853,0,54.506-16.427T1532.627,172.2Zm34.72-131.786V233.431h31.733V147.565a131.959,131.959,0,0,1,3.733-33.04,63.33,63.33,0,0,1,11.946-24.453,51.2,51.2,0,0,1,21.653-15.307q13.44-5.227,32.48-5.227v-33.6q-25.76-.747-42.56,10.453t-28.373,34.72h-.747V40.419Zm388.637,4.48h33.6q-.747-22.027-8.4-37.893a73.833,73.833,0,0,0-20.906-26.32,86.238,86.238,0,0,0-30.8-15.307,142.43,142.43,0,0,0-38.08-4.853,136.735,136.735,0,0,0-35.653,4.667,98.029,98.029,0,0,0-30.987,14.187,71.805,71.805,0,0,0-21.84,24.266q-8.213,14.747-8.213,34.906,0,18.293,7.28,30.426A59.018,59.018,0,0,0,1821.4,88.765a112.822,112.822,0,0,0,27.44,12.32q15.307,4.667,31.173,8.213t31.173,6.907a142.129,142.129,0,0,1,27.44,8.773,53.5,53.5,0,0,1,19.413,14q7.28,8.587,7.28,22.4,0,14.56-5.973,23.893a43.473,43.473,0,0,1-15.68,14.747,70.94,70.94,0,0,1-21.84,7.653,132.407,132.407,0,0,1-24.08,2.24,113.942,113.942,0,0,1-29.12-3.733A72.458,72.458,0,0,1,1843.8,194.6a59.4,59.4,0,0,1-17.173-19.973q-6.533-12.133-6.533-28.933h-33.6q0,24.266,8.773,42a80.532,80.532,0,0,0,23.893,29.12,104.644,104.644,0,0,0,35.093,16.987,156.291,156.291,0,0,0,42.373,5.6,162.053,162.053,0,0,0,36.773-4.293A106.411,106.411,0,0,0,1966.81,221.3a78.354,78.354,0,0,0,24.453-24.64q9.52-15.12,9.52-36.4,0-19.787-7.28-32.853a64.854,64.854,0,0,0-19.413-21.653,102.823,102.823,0,0,0-27.44-13.627q-15.307-5.04-31.173-8.773T1884.3,76.445a163.25,163.25,0,0,1-27.44-8.027q-12.133-4.853-19.413-12.507t-7.28-19.973q0-13.067,5.04-21.84a39.2,39.2,0,0,1,13.44-14,58.486,58.486,0,0,1,19.226-7.467,108.43,108.43,0,0,1,22.026-2.24q27.627,0,45.36,12.88T1955.984,44.9Zm126.559-4.48V-17.448h-31.733V40.419h-32.853v28h32.853V191.244q0,13.44,2.614,21.653t8.026,12.693q5.414,4.48,14.187,6.16a113.942,113.942,0,0,0,21.093,1.68H2121v-28h-14.56a105.831,105.831,0,0,1-12.133-.56,15.672,15.672,0,0,1-7.28-2.427,9.224,9.224,0,0,1-3.546-5.227,34.621,34.621,0,0,1-.934-8.96V68.419H2121v-28Zm233.331,193.012V40.419h-31.733V149.431a78.185,78.185,0,0,1-3.547,24.08,54.688,54.688,0,0,1-10.64,19.227,47.246,47.246,0,0,1-17.733,12.693q-10.64,4.48-25.2,4.48-18.293,0-28.746-10.453t-10.454-28.373V40.419h-31.733V167.351a119.442,119.442,0,0,0,3.173,28.56,54.085,54.085,0,0,0,11.013,22.213,50.6,50.6,0,0,0,20.533,14.373q12.693,5.04,31.733,5.04,21.28,0,36.96-8.4t25.76-26.32h.747v30.613Zm70.933-94.826a126.964,126.964,0,0,1,2.987-27.626,73.084,73.084,0,0,1,9.707-23.893,50.533,50.533,0,0,1,17.919-16.8q11.2-6.347,27.253-6.347,16.426,0,28,6.16a54.348,54.348,0,0,1,18.853,16.24,67.907,67.907,0,0,1,10.64,23.333,113.005,113.005,0,0,1,.187,53.946,69.463,69.463,0,0,1-10.267,23.333,54.617,54.617,0,0,1-18.293,16.613q-11.2,6.347-27.253,6.347-15.306,0-26.693-5.973a53.054,53.054,0,0,1-18.667-16.053,71.025,71.025,0,0,1-10.826-22.96A98.678,98.678,0,0,1,2386.807,138.6Zm149.332,94.826V-33.127h-31.733V66.179h-.747a51.116,51.116,0,0,0-12.88-14.373,73.173,73.173,0,0,0-16.24-9.333,81.519,81.519,0,0,0-17.173-5.04,94,94,0,0,0-16.053-1.493q-22.026,0-38.64,8.027a79.328,79.328,0,0,0-27.627,21.653,91.419,91.419,0,0,0-16.427,31.92,136.171,136.171,0,0,0-5.413,38.826,131.935,131.935,0,0,0,5.6,38.826A95.972,95.972,0,0,0,2375.42,207.3a80.286,80.286,0,0,0,27.626,22.027q16.614,8.213,39.013,8.213a94.075,94.075,0,0,0,36.96-7.093,46.7,46.7,0,0,0,24.64-23.147h.747v26.133Zm182.932-114.986H2608.192a66.084,66.084,0,0,1,4.853-21.093,56.263,56.263,0,0,1,11.2-17.36,51.3,51.3,0,0,1,16.987-11.76,55.256,55.256,0,0,1,22.213-4.293,54.288,54.288,0,0,1,21.84,4.293,54.953,54.953,0,0,1,17.173,11.573,54.4,54.4,0,0,1,11.573,17.36A64.917,64.917,0,0,1,2719.071,118.445Zm30.613,53.76h-31.36q-4.107,19.04-16.987,28.373t-33.04,9.333q-15.68,0-27.253-5.227a53.413,53.413,0,0,1-19.04-14,54.541,54.541,0,0,1-10.827-20.16,76.614,76.614,0,0,1-2.987-24.08H2752.67a153.665,153.665,0,0,0-3.173-36.96,106.993,106.993,0,0,0-14.186-35.84,84.544,84.544,0,0,0-27.253-27.066q-16.987-10.64-42.746-10.64a87.77,87.77,0,0,0-36.4,7.467,85.552,85.552,0,0,0-28.747,20.907,96.366,96.366,0,0,0-18.853,31.733,116.151,116.151,0,0,0-6.72,40.32,154.721,154.721,0,0,0,6.533,40.693,88.81,88.81,0,0,0,17.36,32.106,79.118,79.118,0,0,0,28.56,20.907q16.987,7.467,40.133,7.467,32.854,0,54.506-16.427T2749.684,172.2Zm35.84-131.786V233.431h31.733V124.418a78.193,78.193,0,0,1,3.547-24.08,54.7,54.7,0,0,1,10.64-19.227,47.25,47.25,0,0,1,17.733-12.693q10.64-4.48,25.2-4.48,18.293,0,28.746,10.453t10.453,28.373V233.431h31.733V106.5a119.43,119.43,0,0,0-3.173-28.56,54.082,54.082,0,0,0-11.013-22.213,52.17,52.17,0,0,0-20.533-14.56q-12.693-5.227-31.733-5.227-42.933,0-62.719,35.093h-.747V40.419Zm251.625,0V-17.448h-31.733V40.419h-32.854v28h32.854V191.244q0,13.44,2.613,21.653t8.027,12.693q5.413,4.48,14.187,6.16a113.943,113.943,0,0,0,21.093,1.68H3075.6v-28h-14.56a105.826,105.826,0,0,1-12.133-.56,15.673,15.673,0,0,1-7.28-2.427,9.224,9.224,0,0,1-3.547-5.227,34.634,34.634,0,0,1-.933-8.96V68.419H3075.6v-28Zm369.971,6.72h35.466q-2.986-21.28-12.693-37.52a92.317,92.317,0,0,0-24.266-27.066A106.375,106.375,0,0,0,3372.4-33.874a137.022,137.022,0,0,0-39.573-5.6q-30.613,0-54.32,11.013a112.258,112.258,0,0,0-39.573,30.053,131.8,131.8,0,0,0-24.08,44.613,177.827,177.827,0,0,0-8.213,54.693,187.954,187.954,0,0,0,7.653,54.506q7.653,25.386,22.959,44.053a106.323,106.323,0,0,0,38.453,29.306q23.147,10.64,54.133,10.64,51.146,0,80.639-28T3445.2,133h-35.467a101.715,101.715,0,0,1-6.72,30.613,73.881,73.881,0,0,1-15.494,24.453A70.562,70.562,0,0,1,3364,204.124q-13.626,5.787-31.173,5.787-23.893,0-41.066-8.96a80.2,80.2,0,0,1-28.187-24.08,103.136,103.136,0,0,1-16.24-35.466,172.732,172.732,0,0,1-5.227-43.12,154.419,154.419,0,0,1,5.227-40.32,103.932,103.932,0,0,1,16.24-34.533,80.681,80.681,0,0,1,28-24.08q16.986-8.96,40.88-8.96,28,0,48.346,14.187T3407.119,47.139Zm78.772-80.266V233.431h31.733V-33.127Zm240.8,266.558V40.419h-31.733V149.431a78.2,78.2,0,0,1-3.546,24.08,54.692,54.692,0,0,1-10.64,19.227,47.25,47.25,0,0,1-17.734,12.693q-10.64,4.48-25.2,4.48-18.293,0-28.747-10.453t-10.453-28.373V40.419H3566.9V167.351a119.456,119.456,0,0,0,3.173,28.56,54.1,54.1,0,0,0,11.013,22.213,50.6,50.6,0,0,0,20.533,14.373q12.694,5.04,31.733,5.04,21.28,0,36.96-8.4t25.76-26.32h.746v30.613ZM3775.6-33.127V233.431h31.733v-25.76h.746a51.125,51.125,0,0,0,12.88,14.373,67.83,67.83,0,0,0,16.24,9.147,88.14,88.14,0,0,0,17.36,4.853,95.385,95.385,0,0,0,15.866,1.493q22.027,0,38.64-7.84a77.448,77.448,0,0,0,27.627-21.467,91.405,91.405,0,0,0,16.426-31.92,136.145,136.145,0,0,0,5.414-38.826,131.951,131.951,0,0,0-5.6-38.826,98.1,98.1,0,0,0-16.614-32.293,79.352,79.352,0,0,0-27.626-22.213q-16.613-8.213-39.013-8.213a91.973,91.973,0,0,0-36.96,7.28,47.515,47.515,0,0,0-24.64,23.333h-.746V-33.127Zm149.332,168.372a126.949,126.949,0,0,1-2.987,27.626,73.083,73.083,0,0,1-9.707,23.893,51.021,51.021,0,0,1-17.733,16.8q-11.013,6.347-27.439,6.347t-28-6.16a54.35,54.35,0,0,1-18.853-16.24,67.913,67.913,0,0,1-10.64-23.333,113.022,113.022,0,0,1-.186-53.946A69.457,69.457,0,0,1,3819.649,86.9a54.625,54.625,0,0,1,18.293-16.613q11.2-6.347,27.253-6.347,15.307,0,26.694,5.973a53.052,53.052,0,0,1,18.666,16.053,71.026,71.026,0,0,1,10.827,22.96A98.7,98.7,0,0,1,3924.928,135.245Zm90.346,37.333h-31.733q.746,17.92,7.467,30.426a56.159,56.159,0,0,0,17.92,20.16,75.1,75.1,0,0,0,25.76,11.013,135.777,135.777,0,0,0,30.613,3.36,156.809,156.809,0,0,0,29.306-2.8,79.585,79.585,0,0,0,26.506-9.893,56.906,56.906,0,0,0,19.04-18.667q7.28-11.573,7.28-29.12,0-13.813-5.414-23.146a48.317,48.317,0,0,0-14.187-15.493,76.077,76.077,0,0,0-20.159-9.893,238.322,238.322,0,0,0-23.333-6.347q-11.2-2.613-22.4-5.04a129.2,129.2,0,0,1-20.16-5.973,46.193,46.193,0,0,1-14.747-8.96,17.868,17.868,0,0,1-5.787-13.627q0-7.467,3.733-12.133a26.7,26.7,0,0,1,9.707-7.467,48.408,48.408,0,0,1,13.253-3.92,94.416,94.416,0,0,1,14.373-1.12,72.052,72.052,0,0,1,15.494,1.68,47.5,47.5,0,0,1,14,5.413,31.777,31.777,0,0,1,10.453,9.893q4.107,6.16,4.853,15.493h31.733q-1.12-17.547-7.467-29.306a50.236,50.236,0,0,0-16.986-18.667,69.963,69.963,0,0,0-24.453-9.707,152.4,152.4,0,0,0-30.24-2.8,106.586,106.586,0,0,0-25.573,3.173,77.137,77.137,0,0,0-23.147,9.707,53.42,53.42,0,0,0-16.8,16.987q-6.534,10.453-6.533,25.013,0,18.667,9.333,29.12a62.992,62.992,0,0,0,23.333,16.24,157.88,157.88,0,0,0,30.426,8.96q16.427,3.173,30.427,7.093T4104.5,162.5q9.334,6.347,9.333,18.667,0,8.96-4.48,14.747a28.391,28.391,0,0,1-11.387,8.773,57.48,57.48,0,0,1-15.12,4.107,116.194,116.194,0,0,1-15.68,1.12,94.058,94.058,0,0,1-18.853-1.867,52.891,52.891,0,0,1-16.427-6.16,33.77,33.77,0,0,1-11.76-11.573Q4015.648,183.031,4015.274,172.578ZM4260.552-33.127h48.533L4375.912,177.8h.746l68.32-210.932h47.413L4401.3,233.431H4349.4Zm258.345,0h46.667V233.431H4518.9Zm78.4,0h215.785V7.192h-84.746V233.431h-46.667V7.192H4597.3Z" transform="translate(-1261.387 238.551)" fill="#707070"/>
    </g>
  </g>
</svg>
